# Blender 4.0.2
# www.blender.org
mtllib Flashlight.mtl
o Cylinder
v -0.163410 1.000000 1.000000
v -1.000000 1.000000 -1.000000
v -0.149282 0.933535 1.000000
v -0.913545 0.593263 -1.000000
v -0.109342 0.878563 1.000000
v -0.669131 0.256855 -1.000000
v -0.050496 0.844588 1.000000
v -0.309017 0.048943 -1.000000
v 0.017081 0.837485 1.000000
v 0.104528 0.005478 -1.000000
v 0.081705 0.858483 1.000000
v 0.500000 0.133975 -1.000000
v 0.132201 0.903950 1.000000
v 0.809017 0.412215 -1.000000
v 0.159839 0.966025 1.000000
v 0.978148 0.792088 -1.000000
v 0.159839 1.033975 1.000000
v 0.978148 1.207912 -1.000000
v 0.132201 1.096050 1.000000
v 0.809017 1.587785 -1.000000
v 0.081705 1.141517 1.000000
v 0.500000 1.866025 -1.000000
v 0.017081 1.162515 1.000000
v 0.104528 1.994522 -1.000000
v -0.050496 1.155412 1.000000
v -0.309017 1.951056 -1.000000
v -0.109342 1.121437 1.000000
v -0.669131 1.743145 -1.000000
v -0.149282 1.066465 1.000000
v -0.913545 1.406737 -1.000000
vn -0.9225 -0.0000 0.3859
vn -0.8428 -0.3752 0.3859
vn -0.6173 -0.6856 0.3859
vn -0.2851 -0.8774 0.3859
vn 0.0964 -0.9175 0.3859
vn 0.4613 -0.7989 0.3859
vn 0.7464 -0.5423 0.3859
vn 0.9024 -0.1918 0.3859
vn 0.9024 0.1918 0.3859
vn 0.7464 0.5423 0.3859
vn 0.4613 0.7989 0.3859
vn 0.0964 0.9175 0.3859
vn -0.2851 0.8774 0.3859
vn -0.6173 0.6856 0.3859
vn -0.8428 0.3752 0.3859
vt 1.000000 0.000000
vt 1.000000 1.000000
vt 0.933333 1.000000
vt 0.933333 0.000000
vt 0.866667 1.000000
vt 0.866667 0.000000
vt 0.800000 1.000000
vt 0.800000 0.000000
vt 0.733333 1.000000
vt 0.733333 0.000000
vt 0.666667 1.000000
vt 0.666667 0.000000
vt 0.600000 1.000000
vt 0.600000 0.000000
vt 0.533333 1.000000
vt 0.533333 0.000000
vt 0.466667 1.000000
vt 0.466667 0.000000
vt 0.400000 1.000000
vt 0.400000 0.000000
vt 0.333333 1.000000
vt 0.333333 0.000000
vt 0.266667 1.000000
vt 0.266667 0.000000
vt 0.200000 1.000000
vt 0.200000 0.000000
vt 0.133333 1.000000
vt 0.133333 0.000000
vt 0.066667 1.000000
vt 0.066667 0.000000
vt 0.000000 1.000000
vt 0.000000 0.000000
s 1
f 1/1/1 2/2/1 4/3/2 3/4/2
f 3/4/2 4/3/2 6/5/3 5/6/3
f 5/6/3 6/5/3 8/7/4 7/8/4
f 7/8/4 8/7/4 10/9/5 9/10/5
f 9/10/5 10/9/5 12/11/6 11/12/6
f 11/12/6 12/11/6 14/13/7 13/14/7
f 13/14/7 14/13/7 16/15/8 15/16/8
f 15/16/8 16/15/8 18/17/9 17/18/9
f 17/18/9 18/17/9 20/19/10 19/20/10
f 19/20/10 20/19/10 22/21/11 21/22/11
f 21/22/11 22/21/11 24/23/12 23/24/12
f 23/24/12 24/23/12 26/25/13 25/26/13
f 25/26/13 26/25/13 28/27/14 27/28/14
f 27/28/14 28/27/14 30/29/15 29/30/15
f 29/30/15 30/29/15 2/31/1 1/32/1
