# Blender 4.0.2
# www.blender.org
mtllib Flashlight.mtl
o Cylinder
v 0.000000 2.000000 -1.000000
v -0.000000 1.157017 1.000000
v 0.178557 1.983930 -1.000000
v 0.028036 1.154493 1.000000
v 0.351375 1.936235 -1.000000
v 0.055172 1.147004 1.000000
v 0.512899 1.858449 -1.000000
v 0.080534 1.134791 1.000000
v 0.657939 1.753072 -1.000000
v 0.103307 1.118245 1.000000
v 0.781831 1.623490 -1.000000
v 0.122761 1.097898 1.000000
v 0.880596 1.473869 -1.000000
v 0.138268 1.074405 1.000000
v 0.951057 1.309017 -1.000000
v 0.149332 1.048521 1.000000
v 0.990950 1.134233 -1.000000
v 0.155596 1.021077 1.000000
v 0.998993 0.955135 -1.000000
v 0.156859 0.992955 1.000000
v 0.974928 0.777479 -1.000000
v 0.153080 0.965060 1.000000
v 0.919528 0.606975 -1.000000
v 0.144381 0.938288 1.000000
v 0.834573 0.449103 -1.000000
v 0.131042 0.913500 1.000000
v 0.722795 0.308937 -1.000000
v 0.113491 0.891492 1.000000
v 0.587785 0.190983 -1.000000
v 0.092292 0.872971 1.000000
v 0.433884 0.099031 -1.000000
v 0.068127 0.858533 1.000000
v 0.266037 0.036037 -1.000000
v 0.041772 0.848642 1.000000
v 0.089639 0.004026 -1.000000
v 0.014075 0.843615 1.000000
v -0.089639 0.004026 -1.000000
v -0.014075 0.843615 1.000000
v -0.266037 0.036037 -1.000000
v -0.041772 0.848642 1.000000
v -0.433884 0.099031 -1.000000
v -0.068127 0.858533 1.000000
v -0.587785 0.190983 -1.000000
v -0.092292 0.872971 1.000000
v -0.722795 0.308937 -1.000000
v -0.113491 0.891492 1.000000
v -0.834573 0.449103 -1.000000
v -0.131042 0.913500 1.000000
v -0.919528 0.606975 -1.000000
v -0.144381 0.938288 1.000000
v -0.974928 0.777479 -1.000000
v -0.153080 0.965060 1.000000
v -0.998993 0.955135 -1.000000
v -0.156859 0.992955 1.000000
v -0.990950 1.134233 -1.000000
v -0.155596 1.021077 1.000000
v -0.951057 1.309017 -1.000000
v -0.149332 1.048521 1.000000
v -0.880596 1.473869 -1.000000
v -0.138268 1.074405 1.000000
v -0.781831 1.623490 -1.000000
v -0.122761 1.097898 1.000000
v -0.657939 1.753072 -1.000000
v -0.103307 1.118245 1.000000
v -0.512899 1.858449 -1.000000
v -0.080534 1.134791 1.000000
v -0.351375 1.936235 -1.000000
v -0.055172 1.147004 1.000000
v -0.178557 1.983930 -1.000000
v -0.028036 1.154493 1.000000
vn 0.0827 0.9183 0.3871
vn 0.2453 0.8888 0.3871
vn 0.4001 0.8307 0.3871
vn 0.5420 0.7460 0.3871
vn 0.6665 0.6372 0.3871
vn 0.7695 0.5080 0.3871
vn 0.8479 0.3624 0.3871
vn 0.8989 0.2052 0.3871
vn 0.9211 0.0414 0.3871
vn 0.9137 -0.1238 0.3871
vn 0.8769 -0.2849 0.3871
vn 0.8120 -0.4369 0.3871
vn 0.7209 -0.5749 0.3871
vn 0.6067 -0.6944 0.3871
vn 0.4729 -0.7915 0.3871
vn 0.3240 -0.8633 0.3871
vn 0.1646 -0.9072 0.3871
vn -0.0000 -0.9220 0.3871
vn -0.1646 -0.9072 0.3871
vn -0.3240 -0.8633 0.3871
vn -0.4729 -0.7915 0.3871
vn -0.6067 -0.6944 0.3871
vn -0.7209 -0.5749 0.3871
vn -0.8120 -0.4369 0.3871
vn -0.8769 -0.2849 0.3871
vn -0.9137 -0.1238 0.3871
vn -0.9211 0.0414 0.3871
vn -0.8989 0.2052 0.3871
vn -0.8479 0.3624 0.3871
vn -0.7695 0.5080 0.3871
vn -0.6665 0.6372 0.3871
vn -0.5420 0.7460 0.3871
vn -0.4001 0.8307 0.3871
vn -0.2453 0.8888 0.3871
vn -0.0827 0.9183 0.3871
vt 1.000000 0.000000
vt 1.000000 1.000000
vt 0.971429 1.000000
vt 0.971429 0.000000
vt 0.942857 1.000000
vt 0.942857 0.000000
vt 0.914286 1.000000
vt 0.914286 0.000000
vt 0.885714 1.000000
vt 0.885714 0.000000
vt 0.857143 1.000000
vt 0.857143 0.000000
vt 0.828571 1.000000
vt 0.828571 0.000000
vt 0.800000 1.000000
vt 0.800000 0.000000
vt 0.771429 1.000000
vt 0.771429 0.000000
vt 0.742857 1.000000
vt 0.742857 0.000000
vt 0.714286 1.000000
vt 0.714286 0.000000
vt 0.685714 1.000000
vt 0.685714 0.000000
vt 0.657143 1.000000
vt 0.657143 0.000000
vt 0.628571 1.000000
vt 0.628571 0.000000
vt 0.600000 1.000000
vt 0.600000 0.000000
vt 0.571429 1.000000
vt 0.571429 0.000000
vt 0.542857 1.000000
vt 0.542857 0.000000
vt 0.514286 1.000000
vt 0.514286 0.000000
vt 0.485714 1.000000
vt 0.485714 0.000000
vt 0.457143 1.000000
vt 0.457143 0.000000
vt 0.428571 1.000000
vt 0.428571 0.000000
vt 0.400000 1.000000
vt 0.400000 0.000000
vt 0.371429 1.000000
vt 0.371429 0.000000
vt 0.342857 1.000000
vt 0.342857 0.000000
vt 0.314286 1.000000
vt 0.314286 0.000000
vt 0.285714 1.000000
vt 0.285714 0.000000
vt 0.257143 1.000000
vt 0.257143 0.000000
vt 0.228571 1.000000
vt 0.228571 0.000000
vt 0.200000 1.000000
vt 0.200000 0.000000
vt 0.171429 1.000000
vt 0.171429 0.000000
vt 0.142857 1.000000
vt 0.142857 0.000000
vt 0.114286 1.000000
vt 0.114286 0.000000
vt 0.085714 1.000000
vt 0.085714 0.000000
vt 0.057143 1.000000
vt 0.057143 0.000000
vt 0.028571 1.000000
vt 0.028571 0.000000
vt 0.000000 1.000000
vt 0.000000 0.000000
s 0
f 1/1/1 2/2/1 4/3/1 3/4/1
f 3/4/2 4/3/2 6/5/2 5/6/2
f 5/6/3 6/5/3 8/7/3 7/8/3
f 7/8/4 8/7/4 10/9/4 9/10/4
f 9/10/5 10/9/5 12/11/5 11/12/5
f 11/12/6 12/11/6 14/13/6 13/14/6
f 13/14/7 14/13/7 16/15/7 15/16/7
f 15/16/8 16/15/8 18/17/8 17/18/8
f 17/18/9 18/17/9 20/19/9 19/20/9
f 19/20/10 20/19/10 22/21/10 21/22/10
f 21/22/11 22/21/11 24/23/11 23/24/11
f 23/24/12 24/23/12 26/25/12 25/26/12
f 25/26/13 26/25/13 28/27/13 27/28/13
f 27/28/14 28/27/14 30/29/14 29/30/14
f 29/30/15 30/29/15 32/31/15 31/32/15
f 31/32/16 32/31/16 34/33/16 33/34/16
f 33/34/17 34/33/17 36/35/17 35/36/17
f 35/36/18 36/35/18 38/37/18 37/38/18
f 37/38/19 38/37/19 40/39/19 39/40/19
f 39/40/20 40/39/20 42/41/20 41/42/20
f 41/42/21 42/41/21 44/43/21 43/44/21
f 43/44/22 44/43/22 46/45/22 45/46/22
f 45/46/23 46/45/23 48/47/23 47/48/23
f 47/48/24 48/47/24 50/49/24 49/50/24
f 49/50/25 50/49/25 52/51/25 51/52/25
f 51/52/26 52/51/26 54/53/26 53/54/26
f 53/54/27 54/53/27 56/55/27 55/56/27
f 55/56/28 56/55/28 58/57/28 57/58/28
f 57/58/29 58/57/29 60/59/29 59/60/29
f 59/60/30 60/59/30 62/61/30 61/62/30
f 61/62/31 62/61/31 64/63/31 63/64/31
f 63/64/32 64/63/32 66/65/32 65/66/32
f 65/66/33 66/65/33 68/67/33 67/68/33
f 67/68/34 68/67/34 70/69/34 69/70/34
f 69/70/35 70/69/35 2/71/35 1/72/35
