# Blender 4.0.2
# www.blender.org
mtllib SpaceShip.mtl
o Cube.002
v -0.737562 0.169246 0.814649
v 0.114411 -0.175964 1.446530
v 0.737562 0.169246 0.814649
v 0.079498 -0.107771 1.508717
v 0.000000 0.229467 -1.049204
v 0.000000 0.229467 1.036694
v -0.637732 0.010764 -0.594754
v 0.637732 0.010764 -0.594754
v 0.122858 -0.104615 1.434070
v 0.000000 -0.067010 1.419308
v 0.000000 0.000000 -1.396943
v 1.695817 0.000000 1.218882
v 0.643749 0.158483 -0.523682
v -0.114411 -0.175964 1.446530
v -0.655283 -0.241752 -0.199996
v -0.122858 -0.104615 1.434070
v -1.695817 0.000000 1.218882
v -0.643749 0.158483 -0.523682
v 0.655283 -0.241752 -0.199996
v 0.000000 -0.383552 -0.770824
v 0.000000 -0.252085 1.451038
v 0.938099 0.000000 1.133472
v 0.737562 -0.241752 1.090060
v 0.000000 0.000000 1.396943
v -0.938099 0.000000 1.133471
v -0.737562 -0.241752 1.090060
v 0.000000 -0.383552 1.378465
v 0.071636 -0.174183 1.520314
v -0.000000 -0.083465 1.496278
v -0.079498 -0.107771 1.508717
v -0.071636 -0.174183 1.520314
v -0.000000 -0.221874 1.519856
v -0.122858 -0.104615 1.508165
v -0.114411 -0.175964 1.520625
v 0.122858 -0.104615 1.508166
v 0.000000 -0.067010 1.493403
v 0.114411 -0.175964 1.520625
v 0.000000 -0.252085 1.525133
v -0.079498 -0.112470 1.482030
v -0.071636 -0.178881 1.493628
v 0.079498 -0.112470 1.482031
v 0.000000 -0.088163 1.469591
v 0.071636 -0.178881 1.493628
v 0.000000 -0.226572 1.493169
vn 0.1823 0.9830 -0.0207
vn -0.1653 0.8710 0.4626
vn -0.0958 0.9954 -0.0058
vn 0.5477 0.8240 -0.1451
vn 0.1653 0.8710 0.4626
vn -0.5917 0.5948 -0.5442
vn 0.0958 0.9954 -0.0058
vn -0.0558 0.8669 0.4953
vn 0.5917 0.5948 -0.5442
vn -0.1823 0.9830 -0.0207
vn 0.0558 0.8669 0.4953
vn -0.8464 0.2025 -0.4926
vn 0.5565 -0.7008 -0.4462
vn -0.2004 -0.9797 -0.0048
vn -0.5565 -0.7008 -0.4462
vn 0.2004 -0.9797 -0.0048
vn 0.6951 -0.5912 -0.4091
vn 0.8464 0.2025 -0.4926
vn -0.2466 -0.9690 -0.0157
vn 0.1116 -0.0852 0.9901
vn -0.6951 -0.5912 -0.4091
vn -0.1116 -0.0852 0.9901
vn 0.2466 -0.9690 -0.0157
vn 0.3972 -0.3490 0.8488
vn 0.2105 0.5371 0.8168
vn -0.3972 -0.3490 0.8488
vn -0.2105 0.5371 0.8168
vn -0.3923 -0.4746 0.7880
vn 0.3923 -0.4746 0.7880
vn -0.5539 -0.8326 -0.0000
vn -0.9931 -0.1176 -0.0000
vn 0.9931 -0.1176 -0.0000
vn 0.5539 -0.8326 -0.0000
vn -0.2927 0.9562 -0.0000
vn 0.2927 0.9562 -0.0000
vn -0.0000 0.1720 0.9851
vn -0.0464 0.2707 0.9616
vn 0.0464 0.2707 0.9616
vn 0.0496 0.1071 0.9930
vn -0.0497 0.1071 0.9930
vn -0.0973 0.1824 0.9784
vn -0.9933 0.1141 -0.0201
vn 0.9933 0.1141 -0.0201
vn -0.5477 0.8240 -0.1451
vn 0.3119 -0.9357 0.1647
vn -0.3119 -0.9357 0.1647
vn 0.0973 0.1824 0.9784
vn 0.1173 0.1668 0.9790
vn -0.1173 0.1668 0.9790
vt 0.410844 -0.000000
vt 0.410844 0.330566
vt 0.296058 0.158970
vt 0.740857 0.811019
vt 0.727116 0.973902
vt 0.607441 0.937316
vt 0.591008 0.811019
vt 0.099606 0.330532
vt 0.209443 0.411351
vt 0.220100 0.617524
vt 0.099606 0.651316
vt 0.154350 0.736439
vt 0.154350 0.702631
vt 0.158575 0.699646
vt 0.158575 0.733453
vt 0.149849 0.652557
vt 0.133416 0.778853
vt 0.013741 0.815440
vt -0.000000 0.652557
vt 0.416552 0.863746
vt 0.401351 0.962185
vt 0.266054 0.979233
vt 0.266054 0.816414
vt 0.296058 0.330566
vt 0.416552 0.364358
vt 0.405895 0.570531
vt 0.296058 0.651349
vt 0.293137 0.434870
vt 0.220100 0.526612
vt 0.220100 0.330532
vt 0.000000 0.862773
vt 0.150498 0.815440
vt 0.150498 0.978260
vt 0.015201 0.961212
vt 0.525631 0.158970
vt 0.410844 0.330566
vt 0.410844 -0.000000
vt 0.293137 0.618354
vt 0.220100 0.722692
vt 0.220100 0.526612
vt 0.622663 0.022496
vt 0.525631 0.330566
vt 0.525631 -0.000000
vt 0.765463 0.605061
vt 0.918953 0.641543
vt 0.918779 0.821357
vt 0.765463 0.879557
vt -0.000000 0.330532
vt -0.000000 0.000000
vt 0.148029 0.044178
vt 0.138516 0.242746
vt 0.918953 0.568579
vt 0.765463 0.330566
vt 0.918779 0.388766
vt 0.286545 0.087786
vt 0.296058 0.286355
vt 0.148029 0.330532
vt 0.148029 0.000000
vt 0.591008 0.374132
vt 0.416552 0.645955
vt 0.416552 0.330566
vt 0.024947 0.652557
vt -0.000000 0.330532
vt 0.099606 0.330532
vt 0.897443 0.143680
vt 0.760053 0.315389
vt 0.760053 -0.000000
vt 0.502964 0.786593
vt 0.416552 0.865864
vt 0.416552 0.645955
vt 0.765463 0.602388
vt 0.591008 0.645955
vt 0.591008 0.330566
vt 0.502965 0.786593
vt 0.589377 0.645955
vt 0.589377 0.865864
vt 0.622663 0.315389
vt 0.622663 -0.000000
vt 0.760053 0.171709
vt 0.591008 0.720646
vt 0.596098 0.673043
vt 0.711854 0.645955
vt 0.711854 0.811019
vt 0.942461 0.000000
vt 0.968353 0.018081
vt 0.897443 0.151284
vt 0.897443 0.001435
vt 0.411461 0.678438
vt 0.416552 0.726040
vt 0.295706 0.816414
vt 0.295706 0.651349
vt 0.968353 0.284487
vt 0.942461 0.302568
vt 0.897443 0.301133
vt 0.897443 0.151284
vt 0.223208 0.866438
vt 0.253724 0.910951
vt 0.150497 0.969920
vt 0.150497 0.815440
vt 0.416552 1.000000
vt 0.420969 0.946212
vt 0.458807 0.865864
vt 0.535435 1.000000
vt 0.190381 0.705431
vt 0.190381 0.651462
vt 0.201775 0.651316
vt 0.201775 0.705285
vt 0.154350 0.699646
vt 0.154350 0.651772
vt 0.165736 0.651316
vt 0.165736 0.699189
vt 0.745430 0.646411
vt 0.745430 0.694285
vt 0.734044 0.693828
vt 0.734044 0.645955
vt 0.190381 0.651462
vt 0.190381 0.705431
vt 0.178987 0.705285
vt 0.178987 0.651316
vt 0.178987 0.737830
vt 0.178987 0.706250
vt 0.190353 0.705431
vt 0.190353 0.737011
vt 0.177101 0.706104
vt 0.177101 0.737684
vt 0.165736 0.736865
vt 0.165736 0.705285
vt 0.747261 0.695300
vt 0.747261 0.739861
vt 0.740653 0.742158
vt 0.740653 0.694285
vt 0.190353 0.728179
vt 0.190360 0.707721
vt 0.196970 0.705431
vt 0.196970 0.737011
vt 0.734044 0.739861
vt 0.734044 0.695300
vt 0.740653 0.694285
vt 0.740653 0.742158
vt 0.208386 0.715505
vt 0.208393 0.735962
vt 0.201775 0.744795
vt 0.201775 0.713215
vt 0.172362 0.670465
vt 0.172345 0.704273
vt 0.165736 0.705285
vt 0.165736 0.651316
vt 0.172378 0.704273
vt 0.172362 0.670465
vt 0.178987 0.651316
vt 0.178987 0.705285
vt 0.201775 0.713215
vt 0.201775 0.651316
vt 0.210938 0.694924
vt 0.154350 0.654297
vt 0.154350 0.698857
vt 0.150123 0.695876
vt 0.150123 0.651316
vt 0.150123 0.746399
vt 0.150123 0.701838
vt 0.154350 0.698857
vt 0.154350 0.743418
vt 0.162799 0.702631
vt 0.162799 0.736439
vt 0.158575 0.733453
vt 0.158575 0.699646
vt 0.196970 0.728012
vt 0.196970 0.707555
vt 0.201687 0.705431
vt 0.201687 0.725888
vt 0.215654 0.715338
vt 0.215654 0.735796
vt 0.210938 0.733672
vt 0.210938 0.713215
vt 0.220100 0.651316
vt 0.220100 0.713215
vt 0.734044 0.645955
vt 0.734044 0.738786
vt 0.722949 0.677890
vt 0.722949 0.677890
vt 0.711854 0.738786
s 0
f 12/1/1 13/2/1 3/3/1
f 24/4/2 6/5/2 1/6/2 25/7/2
f 5/8/3 18/9/3 1/10/3 6/11/3
f 31/12/4 32/13/4 44/14/4 40/15/4
f 22/16/5 3/17/5 6/18/5 24/19/5
f 7/20/6 18/21/6 5/22/6 11/23/6
f 6/24/7 3/25/7 13/26/7 5/27/7
f 22/28/8 12/29/8 3/30/8
f 8/31/9 11/32/9 5/33/9 13/34/9
f 1/35/10 18/36/10 17/37/10
f 25/38/11 1/39/11 17/40/11
f 7/41/12 17/42/12 18/43/12
f 11/44/13 8/45/13 19/46/13 20/47/13
f 20/48/14 27/49/14 26/50/14 15/51/14
f 7/52/15 11/44/15 20/53/15 15/54/15
f 19/55/16 23/56/16 27/57/16 20/58/16
f 8/59/17 12/60/17 19/61/17
f 12/62/18 8/63/18 13/64/18
f 26/65/19 17/66/19 15/67/19
f 25/68/20 17/69/20 26/70/20
f 7/71/21 15/72/21 17/73/21
f 22/74/22 23/75/22 12/76/22
f 19/77/23 12/78/23 23/79/23
f 9/80/24 2/81/24 23/82/24 22/83/24
f 10/84/25 9/85/25 22/86/25 24/87/25
f 14/88/26 16/89/26 25/90/26 26/91/26
f 16/92/27 10/93/27 24/94/27 25/95/27
f 21/96/28 14/97/28 26/98/28 27/99/28
f 2/100/29 21/101/29 27/102/29 23/103/29
f 14/104/30 21/105/30 38/106/30 34/107/30
f 16/108/31 14/109/31 34/110/31 33/111/31
f 2/112/32 9/113/32 35/114/32 37/115/32
f 21/116/33 2/117/33 37/118/33 38/119/33
f 10/120/34 16/121/34 33/122/34 36/123/34
f 9/124/35 10/125/35 36/126/35 35/127/35
f 31/128/36 30/129/36 33/130/36 34/131/36
f 29/132/37 4/133/37 35/134/37 36/135/37
f 4/136/36 28/137/36 37/138/36 35/139/36
f 30/140/38 29/141/38 36/142/38 33/143/38
f 32/144/39 31/145/39 34/146/39 38/147/39
f 28/148/40 32/149/40 38/150/40 37/151/40
f 42/152/41 43/153/41 41/154/41
f 28/155/42 4/156/42 41/157/42 43/158/42
f 30/159/43 31/160/43 40/161/43 39/162/43
f 32/163/44 28/164/44 43/165/44 44/166/44
f 29/167/45 30/168/45 39/169/45 42/170/45
f 4/171/46 29/172/46 42/173/46 41/174/46
f 40/175/47 42/176/47 39/154/47
f 44/177/48 42/178/48 40/179/48
f 44/82/49 43/180/49 42/181/49
